<?xml version="1.0" encoding="UTF-8"?>
<svg xmlns="http://www.w3.org/2000/svg" version="1.1" viewBox="0 0 595.28 841.89">
  <!-- Generator: Adobe Illustrator 29.1.0, SVG Export Plug-In . SVG Version: 2.1.0 Build 142)  -->
  <defs>
    <style>
      .st0 {
        fill: #fff;
      }

      .st1 {
        fill: none;
      }

      .st2 {
        display: none;
      }
    </style>
  </defs>
  <g id="Layer_2" class="st2">
    <rect class="st0" x="240.83" y="209.62" width="12.8" height="14.15"/>
  </g>
  <g id="Layer_1">
    <g>
      <path class="st1" d="M403.23,433.88h-138.29v49.05h92.48c5.66,0,10.77,1.11,15.34,3.09,43.23,17.82,38.72,113.71-13.27,115.57h43.74c64.57,0,99.42-25.7,99.42-83.79s-34.85-83.91-99.42-83.91Z"/>
      <path class="st1" d="M478.97,270.43c0-53.94-33.57-80.57-92.84-80.57h-121.19v160.21h121.19c59.27,0,92.84-26.51,92.84-79.65Z"/>
      <path d="M506.04,384.08c35.49-24.09,59.27-68,59.27-127.82,0-92.09-59.27-150.99-169.94-150.99h-216.04v328.69h85.61v-.08h138.29c64.57,0,99.42,25.82,99.42,83.91s-34.85,83.79-99.42,83.79h-43.74c-.51.02-.98.1-1.5.1h-178.66v.02h-87.44V112.07H6.28v575.58l326.62-1.47h75.64c118.54,0,180.46-58.09,180.46-157.68,0-75.5-33.57-124.48-82.96-144.42ZM386.13,350.08h-121.19v-160.21h121.19c59.27,0,92.84,26.63,92.84,80.57s-33.57,79.65-92.84,79.65Z"/>
    </g>
  </g>
</svg>