<?xml version="1.0" encoding="UTF-8"?>
<svg xmlns="http://www.w3.org/2000/svg" version="1.1" viewBox="0 0 595.28 841.89">
  <!-- Generator: Adobe Illustrator 29.1.0, SVG Export Plug-In . SVG Version: 2.1.0 Build 142)  -->
  <defs>
    <style>
      .st0 {
        fill: #fff;
      }

      .st1 {
        fill: none;
      }

      .st2 {
        display: none;
      }
    </style>
  </defs>
  <g id="Layer_2" class="st2">
    <rect class="st0" x="240.83" y="209.62" width="12.8" height="14.15"/>
  </g>
  <g id="Layer_1">
    <g>
      <path class="st1" d="M267.03,210.55h-15.12v5.36h10.11c.62,0,1.18.12,1.68.34,4.73,1.95,4.23,12.43-1.45,12.64h4.78c7.06,0,10.87-2.81,10.87-9.16s-3.81-9.17-10.87-9.17Z"/>
      <path class="st1" d="M275.31,192.68c0-5.9-3.67-8.81-10.15-8.81h-13.25v17.52h13.25c6.48,0,10.15-2.9,10.15-8.71Z"/>
      <path d="M278.27,205.11c3.88-2.63,6.48-7.44,6.48-13.98,0-10.07-6.48-16.51-18.58-16.51h-23.62v35.94h9.36s15.12,0,15.12,0c7.06,0,10.87,2.82,10.87,9.17s-3.81,9.16-10.87,9.16h-4.78c-.06,0-.11.01-.16.01h-19.53s-9.56,0-9.56,0v-53.53h-9.36v62.93l35.71-.16h8.27c12.96,0,19.73-6.35,19.73-17.24,0-8.25-3.67-13.61-9.07-15.79ZM265.16,201.39h-13.25v-17.52h13.25c6.48,0,10.15,2.91,10.15,8.81s-3.67,8.71-10.15,8.71Z"/>
    </g>
  </g>
</svg>